<svg width="400" height="400" viewBox="0 0 400 400" fill="none" xmlns="http://www.w3.org/2000/svg">
<path d="M358.5 66.4995C401 105.5 402.5 158.999 383 192.499C360.673 230.855 327.199 273 299.999 304.6C272.999 336.2 236.399 362.8 195.199 367.6C153.999 372.2 108.199 355 79.5993 323.4C50.9993 291.8 39.5993 246 47.5993 207.8C55.3993 169.8 82.3993 139.6 110.999 111.6C139.599 83.6001 105.5 31.9981 172.5 12.4986C228 2.49782 319.5 30.711 358.5 66.4995Z" fill="#6827E8"/>
<path d="M184.002 280.386C215 302.5 263.5 349 213.001 360.886C161 364 106.5 383 43.5011 383C-25.5 383 5.90088 273.586 17.5008 233.386C29.1008 193.186 40.5 177.5 70 199C91.9996 217.613 142.354 250.675 184.002 280.386Z" fill="#2525B6" fill-opacity="0.7"/>
</svg>
