<svg width="90" height="90" viewBox="0 0 90 90" fill="none" xmlns="http://www.w3.org/2000/svg">
<path d="M70.2004 68.3996H19.8004C16.7404 68.3996 14.4004 66.0596 14.4004 62.9996V26.9996C14.4004 23.9396 16.7404 21.5996 19.8004 21.5996H70.2004C73.2604 21.5996 75.6004 23.9396 75.6004 26.9996V62.9996C75.6004 66.0596 73.2604 68.3996 70.2004 68.3996ZM19.8004 25.1996C18.7204 25.1996 18.0004 25.9196 18.0004 26.9996V62.9996C18.0004 64.0796 18.7204 64.7996 19.8004 64.7996H70.2004C71.2804 64.7996 72.0004 64.0796 72.0004 62.9996V26.9996C72.0004 25.9196 71.2804 25.1996 70.2004 25.1996H19.8004Z" fill="#101066"/>
<path d="M16.1992 28.8008H73.7992V39.6008H16.1992V28.8008ZM21.5992 46.8008H23.3992V50.4008H21.5992V46.8008ZM25.1992 46.8008H26.9992V50.4008H25.1992V46.8008ZM28.7992 46.8008H30.5992V50.4008H28.7992V46.8008ZM34.1992 46.8008H35.9992V50.4008H34.1992V46.8008ZM37.7992 46.8008H39.5992V50.4008H37.7992V46.8008ZM41.3992 46.8008H43.1992V50.4008H41.3992V46.8008ZM46.7992 46.8008H48.5992V50.4008H46.7992V46.8008ZM50.3992 46.8008H52.1992V50.4008H50.3992V46.8008ZM53.9992 46.8008H55.7992V50.4008H53.9992V46.8008ZM59.3992 46.8008H61.1992V50.4008H59.3992V46.8008ZM62.9992 46.8008H64.7992V50.4008H62.9992V46.8008ZM66.5992 46.8008H68.3992V50.4008H66.5992V46.8008Z" fill="#101066"/>
</svg>
