<svg width="90" height="90" viewBox="0 0 90 90" fill="none" xmlns="http://www.w3.org/2000/svg">
<path d="M58.125 3.75H28.125C25.6386 3.75 23.254 4.73772 21.4959 6.49587C19.7377 8.25403 18.75 10.6386 18.75 13.125V76.875C18.75 79.3614 19.7377 81.746 21.4959 83.5041C23.254 85.2623 25.6386 86.25 28.125 86.25H58.125C60.6114 86.25 62.996 85.2623 64.7541 83.5041C66.5123 81.746 67.5 79.3614 67.5 76.875V13.125C67.5 10.6386 66.5123 8.25403 64.7541 6.49587C62.996 4.73772 60.6114 3.75 58.125 3.75ZM43.125 82.5C40.0125 82.5 37.5 79.9875 37.5 76.875C37.5 73.7625 40.0125 71.25 43.125 71.25C46.2375 71.25 48.75 73.7625 48.75 76.875C48.75 79.9875 46.2375 82.5 43.125 82.5ZM60 67.5H26.25V15H60V67.5Z" fill="#101066"/>
</svg>
