<svg width="90" height="90" viewBox="0 0 90 90" fill="none" xmlns="http://www.w3.org/2000/svg">
<path d="M45 7.5C37.5408 7.5 30.3871 10.4632 25.1126 15.7376C19.8382 21.0121 16.875 28.1658 16.875 35.625C16.875 42.87 20.865 49.875 25.38 55.56C29.955 61.3237 35.4225 66.1688 39.0863 69.1425C42.5588 71.955 47.4412 71.955 50.9137 69.1425C54.5775 66.1688 60.045 61.3237 64.62 55.56C69.135 49.8787 73.125 42.87 73.125 35.625C73.125 28.1658 70.1618 21.0121 64.8874 15.7376C59.6129 10.4632 52.4592 7.5 45 7.5ZM54.375 35.625C54.375 38.1114 53.3873 40.496 51.6291 42.2541C49.871 44.0123 47.4864 45 45 45C42.5136 45 40.129 44.0123 38.3709 42.2541C36.6127 40.496 35.625 38.1114 35.625 35.625C35.625 33.1386 36.6127 30.754 38.3709 28.9959C40.129 27.2377 42.5136 26.25 45 26.25C47.4864 26.25 49.871 27.2377 51.6291 28.9959C53.3873 30.754 54.375 33.1386 54.375 35.625ZM66.3075 59.4263C64.9425 61.0462 63.5325 62.5837 62.13 64.0125C63.4675 64.3875 64.705 64.8 65.8425 65.25C68.4525 66.2775 70.3688 67.425 71.5875 68.565C72.8063 69.6975 73.125 70.605 73.125 71.25C73.125 71.895 72.8063 72.8025 71.5875 73.935C70.3688 75.0713 68.4525 76.2225 65.8462 77.25C60.6488 79.2975 53.2837 80.625 45 80.625C36.7162 80.625 29.3512 79.2975 24.1537 77.25C21.5475 76.2262 19.6312 75.075 18.4087 73.935C17.1937 72.8025 16.875 71.895 16.875 71.25C16.875 70.605 17.1937 69.6975 18.4125 68.565C19.6312 67.4288 21.5475 66.2775 24.1537 65.25C25.2963 64.8 26.5338 64.3875 27.8663 64.0125C26.418 62.5366 25.0258 61.0068 23.6925 59.4263C23.145 59.6138 22.6112 59.81 22.0912 60.015C19.0987 61.1962 16.4888 62.6663 14.5763 64.4475C12.6638 66.2325 11.25 68.5275 11.25 71.25C11.25 73.9725 12.66 76.2675 14.5763 78.0525C16.4888 79.8337 19.0987 81.3075 22.0912 82.485C28.095 84.8475 36.195 86.25 45 86.25C53.805 86.25 61.905 84.8512 67.905 82.485C70.9012 81.3075 73.5113 79.8337 75.4238 78.0525C77.3363 76.2675 78.75 73.9725 78.75 71.25C78.75 68.5275 77.34 66.2325 75.4238 64.4475C73.5113 62.67 70.9012 61.1962 67.905 60.015C67.3875 59.8125 66.855 59.6162 66.3075 59.4263Z" fill="#101066"/>
</svg>
