<svg width="40" height="37" viewBox="0 0 40 37" fill="none" xmlns="http://www.w3.org/2000/svg">
<path d="M28 14.7909C28 16.7525 27.1571 18.6338 25.6569 20.0209C24.1566 21.408 22.1217 22.1873 20 22.1873C17.8783 22.1873 15.8434 21.408 14.3431 20.0209C12.8429 18.6338 12 16.7525 12 14.7909C12 12.8293 12.8429 10.948 14.3431 9.56088C15.8434 8.17379 17.8783 7.39453 20 7.39453C22.1217 7.39453 24.1566 8.17379 25.6569 9.56088C27.1571 10.948 28 12.8293 28 14.7909Z" fill="white"/>
<path fill-rule="evenodd" clip-rule="evenodd" d="M19.184 36.9671C8.517 36.5714 0 28.4501 0 18.4909C0 8.27839 8.954 0 20 0C31.046 0 40 8.27839 40 18.4909C40 28.7035 31.046 36.9819 20 36.9819H19.726C19.5447 36.9819 19.364 36.9769 19.184 36.9671ZM7.166 30.1587C7.01646 29.7617 6.96557 29.3386 7.01708 28.9209C7.0686 28.5032 7.22121 28.1016 7.46358 27.7459C7.70595 27.3902 8.03186 27.0895 8.41712 26.8662C8.80238 26.6429 9.2371 26.5026 9.689 26.4559C17.485 25.658 22.563 25.7301 30.321 26.4725C30.7735 26.5161 31.2093 26.6546 31.5952 26.8774C31.9811 27.1002 32.3068 27.4015 32.5477 27.7583C32.7886 28.1151 32.9383 28.5181 32.9853 28.9364C33.0323 29.3548 32.9754 29.7776 32.819 30.1726C36.1441 27.0624 38.0062 22.864 38 18.4909C38 9.30001 29.941 1.84909 20 1.84909C10.059 1.84909 2 9.30001 2 18.4909C2 23.036 3.971 27.1558 7.166 30.1587Z" fill="white"/>
</svg>
