<svg id="visual" viewBox="0 0 300 80" width="300" height="80" xmlns="http://www.w3.org/2000/svg" xmlns:xlink="http://www.w3.org/1999/xlink" version="1.1"><path d="M0 46L3.5 45.8C7 45.7 14 45.3 21.2 46C28.3 46.7 35.7 48.3 42.8 50.7C50 53 57 56 64.2 57.7C71.3 59.3 78.7 59.7 85.8 55.3C93 51 100 42 107.2 38.2C114.3 34.3 121.7 35.7 128.8 38.2C136 40.7 143 44.3 150 47.8C157 51.3 164 54.7 171.2 51C178.3 47.3 185.7 36.7 192.8 31.5C200 26.3 207 26.7 214.2 30.5C221.3 34.3 228.7 41.7 235.8 47.3C243 53 250 57 257.2 55.7C264.3 54.3 271.7 47.7 278.8 43.7C286 39.7 293 38.3 296.5 37.7L300 37" fill="none" stroke-linecap="round" stroke-linejoin="miter" stroke="#33B5A5" stroke-width="15"></path></svg>