<svg viewBox="0 0 200 200" xmlns="http://www.w3.org/2000/svg">
  <path fill="#27DEE8" d="M44.1,-74C58.5,-68.2,72.3,-58.9,78.2,-46C84.1,-33.1,82.2,-16.6,77.1,-2.9C72,10.7,63.7,21.4,56.4,31.9C49.1,42.4,42.8,52.7,33.5,61.4C24.3,70.1,12.1,77.1,-1.5,79.7C-15.2,82.4,-30.4,80.6,-43.9,74.4C-57.5,68.2,-69.4,57.6,-73.1,44.4C-76.9,31.3,-72.5,15.6,-68.3,2.4C-64.2,-10.8,-60.3,-21.7,-56.8,-35.4C-53.4,-49.1,-50.5,-65.7,-41.1,-74.4C-31.7,-83.1,-15.8,-83.8,-0.5,-82.9C14.9,-82.1,29.8,-79.8,44.1,-74Z" transform="translate(100 100)" />
</svg>