<svg id="visual" viewBox="0 0 900 600" width="900" height="600" xmlns="http://www.w3.org/2000/svg" xmlns:xlink="http://www.w3.org/1999/xlink" version="1.1"><rect x="0" y="0" width="900" height="600" fill="#2727E8"></rect><defs><linearGradient id="grad1_0" x1="33.3%" y1="0%" x2="100%" y2="100%"><stop offset="20%" stop-color="#2727e8" stop-opacity="1"></stop><stop offset="80%" stop-color="#2727e8" stop-opacity="1"></stop></linearGradient></defs><defs><linearGradient id="grad2_0" x1="0%" y1="0%" x2="66.7%" y2="100%"><stop offset="20%" stop-color="#2727e8" stop-opacity="1"></stop><stop offset="80%" stop-color="#2727e8" stop-opacity="1"></stop></linearGradient></defs><g transform="translate(900, 0)"><path d="M0 486.7C-44.6 439.6 -89.2 392.5 -156.5 377.9C-223.8 363.3 -313.7 381.2 -344.2 344.2C-374.6 307.2 -345.5 215.4 -359.4 148.9C-373.2 82.4 -430 41.2 -486.7 0L0 0Z" fill="#2764E8"></path></g><g transform="translate(0, 600)"><path d="M0 -486.7C65.1 -481.4 130.1 -476 186.3 -449.7C242.4 -423.4 289.6 -376.2 327.4 -327.4C365.2 -278.6 393.5 -228.2 418.5 -173.4C443.5 -118.5 465.1 -59.3 486.7 0L0 0Z" fill="#2764E8"></path></g></svg>