<svg id="visual" viewBox="0 0 700 900" width="700" height="900" xmlns="http://www.w3.org/2000/svg" xmlns:xlink="http://www.w3.org/1999/xlink" version="1.1"><rect x="0" y="0" width="700" height="900" fill="#2727E8"></rect><defs><linearGradient id="grad1_0" x1="0%" y1="0%" x2="100%" y2="100%"><stop offset="30%" stop-color="#2727e8" stop-opacity="1"></stop><stop offset="70%" stop-color="#2727e8" stop-opacity="1"></stop></linearGradient></defs><defs><linearGradient id="grad2_0" x1="0%" y1="0%" x2="100%" y2="100%"><stop offset="30%" stop-color="#2727e8" stop-opacity="1"></stop><stop offset="70%" stop-color="#2727e8" stop-opacity="1"></stop></linearGradient></defs><g transform="translate(700, 0)"><path d="M0 456.1C-80.7 444.7 -161.4 433.3 -228 395C-294.6 356.6 -347.1 291.3 -382.8 221C-418.4 150.7 -437.3 75.3 -456.1 0L0 0Z" fill="#2764E8"></path></g><g transform="translate(0, 900)"><path d="M0 -456.1C77.2 -440.5 154.4 -424.9 224.5 -388.8C294.6 -352.8 357.6 -296.3 395 -228C432.4 -159.8 444.2 -79.9 456.1 0L0 0Z" fill="#2764E8"></path></g></svg>