<svg width="300" height="47" viewBox="0 0 300 47" fill="none" xmlns="http://www.w3.org/2000/svg">
<path d="M299.998 20.4376L296.498 20.6376C292.998 20.7376 285.998 21.1376 278.798 20.4376C271.698 19.7376 264.298 18.1376 257.198 15.7376C249.998 13.4376 242.998 10.4376 235.798 8.73765C228.698 7.13765 221.298 6.73765 214.198 11.1376C206.998 15.4376 199.998 24.4376 192.798 28.2376C185.698 32.1376 178.298 30.7376 171.198 28.2376C163.998 25.7376 156.998 22.1376 149.998 18.6376C142.998 15.1376 135.998 11.7376 128.798 15.4376C121.698 19.1376 114.298 29.7376 107.198 34.9376C99.9981 40.1376 92.9981 39.7376 85.7981 35.9376C78.6981 32.1376 71.2981 24.7376 64.1981 19.1376C56.9981 13.4376 49.998 9.43765 42.798 10.7376C35.6981 12.1376 28.2981 18.7376 21.1981 22.7376C13.9981 26.7376 6.99806 28.1376 3.49806 28.7376L-0.00193524 29.4376" stroke="#33B5A5" stroke-width="15" stroke-linecap="round"/>
</svg>
